<svg xmlns="http://www.w3.org/2000/svg" viewBox="0 0 1260 680" width="1260" height="680" font-family="-apple-system, BlinkMacSystemFont, 'Segoe UI', Roboto, Helvetica, Arial, sans-serif">
  <defs><filter id="sh" x="-20%" y="-20%" width="140%" height="140%">
    <feDropShadow dx="0" dy="2" stdDeviation="4" flood-color="#0f2438" flood-opacity="0.10"/></filter></defs>
  <rect x="0" y="0" width="1260" height="680" rx="18" fill="#f4f7fb"/>
  <text x="40" y="50" font-family="-apple-system, BlinkMacSystemFont, 'Segoe UI', Roboto, Helvetica, Arial, sans-serif" font-size="26" font-weight="700" fill="#0f2438" text-anchor="start">System architecture</text>
  <text x="40" y="74" font-family="-apple-system, BlinkMacSystemFont, 'Segoe UI', Roboto, Helvetica, Arial, sans-serif" font-size="14" font-weight="400" fill="#5b7085" text-anchor="start">Everything runs in the browser; the server only ever holds ciphertext it cannot read.</text>
  <circle cx="92" cy="340" r="26" fill="#1769aa"/><circle cx="92" cy="333" r="8.5" fill="#fff"/><path d="M 79 355 a 13 12 0 0 1 26 0 Z" fill="#fff"/>
  <text x="92" y="392" font-family="-apple-system, BlinkMacSystemFont, 'Segoe UI', Roboto, Helvetica, Arial, sans-serif" font-size="14" font-weight="600" fill="#0f2438" text-anchor="middle">Clinician</text>
  <rect x="200" y="210" width="340" height="300" rx="14" ry="14" fill="#e9f2f9" stroke="#bcd8ec" stroke-width="1.5" filter="url(#sh)"/>
  <text x="224" y="250" font-family="-apple-system, BlinkMacSystemFont, 'Segoe UI', Roboto, Helvetica, Arial, sans-serif" font-size="21" font-weight="700" fill="#1769aa" text-anchor="start">Web App</text>
  <text x="224" y="272" font-family="-apple-system, BlinkMacSystemFont, 'Segoe UI', Roboto, Helvetica, Arial, sans-serif" font-size="13" font-weight="400" fill="#5b7085" text-anchor="start">runs entirely in your browser</text>
  <rect x="222" y="288" width="296" height="26" rx="13" ry="13" fill="#fff" stroke="#bcd8ec" stroke-width="1.25" filter="url(#sh)"/><text x="370" y="306" font-family="-apple-system, BlinkMacSystemFont, 'Segoe UI', Roboto, Helvetica, Arial, sans-serif" font-size="14" font-weight="600" fill="#0f2438" text-anchor="middle">redcaphelper.haddeya.com</text>
  <rect x="222" y="328" width="296" height="32" rx="16" ry="16" fill="#fff" stroke="#bcd8ec" stroke-width="1.25" filter="url(#sh)"/><text x="370" y="349" font-family="-apple-system, BlinkMacSystemFont, 'Segoe UI', Roboto, Helvetica, Arial, sans-serif" font-size="14" font-weight="600" fill="#1769aa" text-anchor="middle">Chart Audit</text>
  <rect x="222" y="368" width="296" height="32" rx="16" ry="16" fill="#fff" stroke="#bcd8ec" stroke-width="1.25" filter="url(#sh)"/><text x="370" y="389" font-family="-apple-system, BlinkMacSystemFont, 'Segoe UI', Roboto, Helvetica, Arial, sans-serif" font-size="14" font-weight="600" fill="#1769aa" text-anchor="middle">Hennepin Score</text>
  <rect x="222" y="408" width="296" height="32" rx="16" ry="16" fill="#fff" stroke="#bcd8ec" stroke-width="1.25" filter="url(#sh)"/><text x="370" y="429" font-family="-apple-system, BlinkMacSystemFont, 'Segoe UI', Roboto, Helvetica, Arial, sans-serif" font-size="14" font-weight="600" fill="#1769aa" text-anchor="middle">Iloprost</text>
  <rect x="222" y="450" width="296" height="46" rx="10" ry="10" fill="#fff" stroke="#bcd8ec" stroke-width="1.25" filter="url(#sh)"/>
  <rect x="236" y="466" width="16" height="12" rx="2.5" fill="#1769aa"/><path d="M 239 466 v -4 a 5 5 0 0 1 10 0 v 4" fill="none" stroke="#1769aa" stroke-width="2.5"/>
  <text x="260" y="470" font-family="-apple-system, BlinkMacSystemFont, 'Segoe UI', Roboto, Helvetica, Arial, sans-serif" font-size="12.5" font-weight="600" fill="#0f2438" text-anchor="start">Encrypts in your browser —</text>
  <text x="260" y="487" font-family="-apple-system, BlinkMacSystemFont, 'Segoe UI', Roboto, Helvetica, Arial, sans-serif" font-size="12.5" font-weight="400" fill="#5b7085" text-anchor="start">the key never leaves it</text>
  <rect x="940" y="150" width="280" height="120" rx="14" ry="14" fill="#e7f4ed" stroke="#a9d9c0" stroke-width="1.5" filter="url(#sh)"/>
  <circle cx="974" cy="190" r="15" fill="#178a5a"/><path d="M 967 190 l 5 5 l 9 -10" fill="none" stroke="#fff" stroke-width="3" stroke-linecap="round" stroke-linejoin="round"/>
  <text x="1000" y="188" font-family="-apple-system, BlinkMacSystemFont, 'Segoe UI', Roboto, Helvetica, Arial, sans-serif" font-size="18" font-weight="700" fill="#178a5a" text-anchor="start">REDCap survey</text>
  <text x="1000" y="210" font-family="-apple-system, BlinkMacSystemFont, 'Segoe UI', Roboto, Helvetica, Arial, sans-serif" font-size="13" font-weight="400" fill="#5b7085" text-anchor="start">the system of record</text>
  <text x="964" y="242" font-family="-apple-system, BlinkMacSystemFont, 'Segoe UI', Roboto, Helvetica, Arial, sans-serif" font-size="13" font-weight="400" fill="#0f2438" text-anchor="start">You review &amp; submit here.</text>
  <rect x="700" y="380" width="380" height="250" rx="14" ry="14" fill="#fdf2e8" stroke="#f4c69c" stroke-width="1.5" filter="url(#sh)"/>
  <circle cx="726" cy="408" r="7" fill="#e8791f"/>
  <text x="742" y="413" font-family="-apple-system, BlinkMacSystemFont, 'Segoe UI', Roboto, Helvetica, Arial, sans-serif" font-size="16" font-weight="700" fill="#e8791f" text-anchor="start">Cloudflare</text>
  <rect x="724" y="432" width="332" height="56" rx="10" ry="10" fill="#fff" stroke="#f4c69c" stroke-width="1.25" filter="url(#sh)"/>
  <text x="740" y="458" font-family="-apple-system, BlinkMacSystemFont, 'Segoe UI', Roboto, Helvetica, Arial, sans-serif" font-size="15" font-weight="700" fill="#0f2438" text-anchor="start">Cloudflare Pages</text>
  <text x="740" y="477" font-family="-apple-system, BlinkMacSystemFont, 'Segoe UI', Roboto, Helvetica, Arial, sans-serif" font-size="12.5" font-weight="400" fill="#5b7085" text-anchor="start">static site  +  /api/save function</text>
  <g filter="url(#sh)"><path d="M 724 512 v 28 a 166 8 0 0 0 332 0 v -28" fill="#fff" stroke="#f4c69c" stroke-width="1.25"/><ellipse cx="890" cy="512" rx="166" ry="8" fill="#fff" stroke="#f4c69c" stroke-width="1.25"/></g>
  <text x="890" y="534" font-family="-apple-system, BlinkMacSystemFont, 'Segoe UI', Roboto, Helvetica, Arial, sans-serif" font-size="13" font-weight="600" fill="#0f2438" text-anchor="middle">Workers KV  ·  ciphertext only</text>
  <rect x="724" y="562" width="332" height="46" rx="10" ry="10" fill="#fff" stroke="#e8791f" stroke-width="1.5" stroke-dasharray="7 5" filter="url(#sh)"/>
  <text x="740" y="582" font-family="-apple-system, BlinkMacSystemFont, 'Segoe UI', Roboto, Helvetica, Arial, sans-serif" font-size="13.5" font-weight="700" fill="#0f2438" text-anchor="start">Optional bridge Worker</text>
  <text x="740" y="599" font-family="-apple-system, BlinkMacSystemFont, 'Segoe UI', Roboto, Helvetica, Arial, sans-serif" font-size="12" font-weight="400" fill="#5b7085" text-anchor="start">/api/code  →  REDCap “Save &amp; Return Later”</text>
  <line x1="124" y1="340" x2="181" y2="340" stroke="#6b8299" stroke-width="2" stroke-linecap="round"/><polygon points="192,340 181,346 181,334" fill="#6b8299"/>
  <line x1="534" y1="300" x2="921.2708968255865" y2="212.42617910979197" stroke="#6b8299" stroke-width="2" stroke-linecap="round"/><polygon points="932,210 922.5942672491094,218.2784172049266 919.9475264020637,206.57394101465735" fill="#6b8299"/>
  <line x1="534" y1="430" x2="681.168763920776" y2="456.0805404416565" stroke="#6b8299" stroke-width="2" stroke-linecap="round"/><polygon points="692,458 680.1217859798613,461.98848739396055 682.2157418616906,450.1725934893525" fill="#6b8299"/>
  <line x1="890" y1="488" x2="890" y2="491" stroke="#6b8299" stroke-width="1.75" stroke-linecap="round"/><polygon points="890,502 884,491 896,491" fill="#6b8299"/>
  <line x1="1060" y1="562" x2="982.9825196789562" y2="288.5879448602946" stroke="#e8791f" stroke-width="2" stroke-linecap="round" stroke-dasharray="7 6"/><polygon points="980,278 988.757762330026,286.9611159445003 977.2072770278864,290.2147737760889" fill="#e8791f"/>
  <text x="600" y="250" font-family="-apple-system, BlinkMacSystemFont, 'Segoe UI', Roboto, Helvetica, Arial, sans-serif" font-size="12.5" font-weight="600" fill="#0f2438" text-anchor="start">opens pre-populated survey</text>
  <text x="620" y="414" font-family="-apple-system, BlinkMacSystemFont, 'Segoe UI', Roboto, Helvetica, Arial, sans-serif" font-size="12.5" font-weight="600" fill="#0f2438" text-anchor="middle">encrypted blob</text>
  <text x="620" y="431" font-family="ui-monospace, SFMono-Regular, Menlo, Consolas, monospace" font-size="11.5" font-weight="400" fill="#5b7085" text-anchor="middle">{ ct, iv, dtok }</text>
  <line x1="44" y1="654" x2="73" y2="654" stroke="#6b8299" stroke-width="2" stroke-linecap="round"/><polygon points="84,654 73,660 73,648" fill="#6b8299"/>
  <text x="92" y="658" font-family="-apple-system, BlinkMacSystemFont, 'Segoe UI', Roboto, Helvetica, Arial, sans-serif" font-size="12.5" font-weight="400" fill="#5b7085" text-anchor="start">always</text>
  <line x1="170" y1="654" x2="199" y2="654" stroke="#e8791f" stroke-width="2" stroke-linecap="round" stroke-dasharray="7 6"/><polygon points="210,654 199,660 199,648" fill="#e8791f"/>
  <text x="218" y="658" font-family="-apple-system, BlinkMacSystemFont, 'Segoe UI', Roboto, Helvetica, Arial, sans-serif" font-size="12.5" font-weight="400" fill="#5b7085" text-anchor="start">optional (bridge)</text>
</svg>